# xmcd CD database file
#
# Track frame offsets:
#	150
#	28386
#	45573
#	68030
#	91604
#	114502
#	164666
#	189999
#	223966
#	253807
#	283029
#
# Disc length: 4096 seconds
#
# Revision: 0
# Processed by: cddbd v1.5.1PL2 Copyright (c) Steve Scherf et al.
# Submitted via: CDex 1.51
#
DISCID=a20ffe0b
DTITLE=Mar del Plata Jazz Ensamble - 30 años con el jazz
DYEAR=2005
DGENRE=Jazz
TTITLE0=Soñador Perezoso
TTITLE1=At the Jazz Band Ball
TTITLE2=Garden Blues
TTITLE3=Indiana
TTITLE4=Struttin whit some barbecue
TTITLE5=Mi Hipocampo
TTITLE6=Lazy River
TTITLE7=After you v'gone
TTITLE8=There will never be another you
TTITLE9=Teresa B
TTITLE10=Satin Doll
EXTD=YEAR: 2005
EXTT0=
EXTT1=
EXTT2=
EXTT3=
EXTT4=
EXTT5=
EXTT6=
EXTT7=
EXTT8=
EXTT9=
EXTT10=
PLAYORDER=
